<?xml version="1.0" encoding="UTF-8"?>
<svg width="175px" height="175px" viewBox="0 0 175 175" version="1.1" xmlns="http://www.w3.org/2000/svg" xmlns:xlink="http://www.w3.org/1999/xlink">
    <title>dogger-black</title>
    <defs>
        <path d="M167,59.803287 L151,94.8202603 C149.5917,97.5961383 138.361055,94.9817696 135.850219,92.0443823 C134.30843,90.2426772 135.211476,81.3620419 135.850219,79.0795305 C137.480076,73.2377983 144.972925,62.8311428 149.913091,59.3225802 C151.609048,58.1185241 155.820117,56.9850314 157.899261,57.0004578 C160.280182,57.0202633 167,59.803287 167,59.803287 Z" id="path-1"></path>
        <path d="M36,59.803287 L20,94.8202603 C18.5917002,97.5961383 7.36105529,94.9817696 4.85021864,92.0443823 C3.30842976,90.2426772 4.21147611,81.3620419 4.85021864,79.0795305 C6.48007567,73.2377983 13.9729251,62.8311428 18.9130906,59.3225802 C20.6090485,58.1185241 24.8201171,56.9850314 26.8992609,57.0004578 C29.2801821,57.0202633 36,59.803287 36,59.803287 Z" id="path-3"></path>
    </defs>
    <g id="dogger-black" stroke="none" stroke-width="1" fill="none" fill-rule="evenodd">
        <g id="Group" transform="translate(2.000000, 5.000000)">
            <polygon id="Path-2" fill="#CDB883" fill-rule="nonzero" transform="translate(86.000000, 145.000000) rotate(-90.000000) translate(-86.000000, -145.000000) " points="107 117.188624 107 174.748336 72.9874117 176 65 145.896853 72.9874117 114"></polygon>
            <path d="M56.0210021,62.1945315 C51.7630619,67.9286705 50.4184963,78.9455576 51.2195352,86.0572814 C51.5826146,89.2665481 53.5586961,94.4062807 56.0210021,96.4748569 C62.6907986,102.084951 90,104.938449 90,104.938449 L90,153.686177 C90,153.686177 59.9110001,157.838332 53.7979386,165.100688 C52.1321033,167.080704 52.3087735,172.259482 52.5332153,174.844228 C53.2879756,183.559435 56.1865317,199.599211 62.9289242,205.122844 C67.3255019,208.726335 80.4150721,209.613538 86,208.621282 C95.7219078,206.895952 121,194 121,194 L121,65.1916004 C121,65.1916004 89.5690486,50.4155019 77.305585,51.0179329 C72.0177943,51.2771171 59.1919883,57.9288366 56.0210021,62.1945315 Z" id="Fill-1838-Copy" fill="#FDEDB6" transform="translate(86.000000, 130.000000) rotate(-90.000000) translate(-86.000000, -130.000000) "></path>
            <path d="M19.1947708,130.800068 C19.9346047,127.110047 21.0410064,123.829347 22.6038927,121.789454 C22.6061254,121.785108 22.6105908,121.780762 22.6128235,121.776317 C22.6150562,121.776317 22.6150562,121.774144 22.6173904,121.771971 C23.0176517,121.251133 23.5370576,120.728023 24.1487145,120.209258 C24.4141007,119.981682 24.6996827,119.756278 24.9987623,119.530776 C22.5633998,125.398579 21.5222536,130.592148 21.5222536,135.181808 C21.5222536,146.293456 27.6229905,153.877074 34.8278964,158.959126 C34.8773202,158.994092 34.9268454,159.029157 34.9786033,159.064222 C44.9043523,165.999976 53.4819674,168.796369 54.4692244,168.969224 C51.8337312,168.840126 32.5567384,167.957345 24.9987623,163.20362 C24.9965296,163.201447 23.4381087,161.85253 23.2020519,161.664265 C23.1885543,161.653301 23.1728239,161.640164 23.1569921,161.627027 C23.1277641,161.605198 23.0985361,161.581097 23.0693081,161.554823 C21.5784769,160.274507 20.0807447,157.62839 19.1947708,154.850947 C18.612342,153.027864 18.3987137,151.014388 18.2525736,149.769038 C18.2525736,149.764692 18.250341,149.760247 18.250341,149.755901 C18.250341,149.753728 18.250341,149.74711 18.250341,149.742764 C18.0681734,148.193188 17.9692244,146.24318 17.9692244,144.085153 C17.9692244,139.974845 18.3313269,135.107332 19.1947708,130.800068 Z" id="Fill-1908-Copy" fill="#E5D6A2" transform="translate(36.219224, 144.250000) rotate(-90.000000) translate(-36.219224, -144.250000) "></path>
            <path d="M111.480872,108.019364 C112.230073,118.048015 115.355027,138.918305 129.788107,144.27554 C144.221188,149.632775 161.315585,145.823561 172.980725,142.256326 C164.474731,146.921933 149.875741,152.617994 143.361696,153.760536 C141.102956,154.159172 126.925529,154.16137 124.0709,153.308836 C124.044211,153.30224 124.019829,153.293346 123.99314,153.28665 C122.614739,152.868228 115.778573,147.220291 115.771851,147.213595 C109.006667,141.697752 109.797756,129.335392 109.019275,120.573301 C109.015243,120.531229 110.407088,109.452014 111.480872,108.019364 Z" id="Fill-1890-Copy" fill="#E5D6A2" transform="translate(141.000000, 131.019364) rotate(-90.000000) translate(-141.000000, -131.019364) "></path>
            <polyline id="Fill-1862" fill="#FFFFFE" transform="translate(66.500000, 122.500000) rotate(-90.000000) translate(-66.500000, -122.500000) " points="63 118.5 70 122.500048 63 126.5 63 118.5"></polyline>
            <polyline id="Fill-1863" fill="#FFFFFE" transform="translate(104.500000, 122.500000) rotate(-90.000000) translate(-104.500000, -122.500000) " points="101 118.5 108 122.5 101 126.5 101 118.5"></polyline>
            <path d="M70,143 L70,15 C90.0692471,23.0907001 100.735914,26.9207887 102,26.490266 L102,127.300459 L70,143 Z" id="Path-Copy-2" fill="#8D5F36" transform="translate(86.000000, 79.000000) rotate(-90.000000) translate(-86.000000, -79.000000) "></path>
            <path d="M70.2105971,91.5315124 C72.9322205,84.1310955 98.9663042,84.1812722 101.819354,91.5315124 C103.669509,96.2997739 90.8167507,105.786219 85.6952527,105.995896 C80.0942937,106.225289 68.2814877,96.7825148 70.2105971,91.5315124 Z" id="Fill-1865" fill="#1B120A"></path>
            <mask id="mask-2" fill="white">
                <use xlink:href="#path-1"></use>
            </mask>
            <use id="Clip-1877-Copy" fill="#77512F" transform="translate(151.000000, 76.500000) rotate(-90.000000) translate(-151.000000, -76.500000) " xlink:href="#path-1"></use>
            <mask id="mask-4" fill="white">
                <use xlink:href="#path-3"></use>
            </mask>
            <use id="Clip-1877-Copy" fill="#77512F" transform="translate(20.000000, 76.500000) scale(-1, 1) rotate(-90.000000) translate(-20.000000, -76.500000) " xlink:href="#path-3"></use>
            <path d="M86,61 L34.079521,61 L2,76.6810177 C2.13793568,89.0860156 5.5242506,94.4148365 12.1589448,92.6674805 C18.7936389,90.9201244 22.8940156,88.9053604 24.4600747,86.6231884 C1.28653803,129.495974 1.17172071,154.663907 24.1156227,162.126987 C41.0603467,165.44855 51.6885049,163.726671 56.0000972,156.961353 C62.4280073,162.320451 72.4279749,165 86,165" id="Path" stroke="#1B120A" stroke-width="4" stroke-linejoin="round" fill-rule="nonzero"></path>
            <path d="M170,61 L118.079521,61 L86,76.6810177 C86.1379357,89.0860156 89.5242506,94.4148365 96.1589448,92.6674805 C102.793639,90.9201244 106.894016,88.9053604 108.460075,86.6231884 C85.286538,129.495974 85.1717207,154.663907 108.115623,162.126987 C125.060347,165.44855 135.688505,163.726671 140.000097,156.961353 C146.428007,162.320451 156.427975,165 170,165" id="Path" stroke="#1B120A" stroke-width="4" stroke-linejoin="round" fill-rule="nonzero" transform="translate(128.000000, 113.000000) scale(-1, 1) translate(-128.000000, -113.000000) "></path>
            <g id="Group-3" transform="translate(43.000000, 0.000000)" fill-rule="nonzero" stroke="#1B120A" stroke-width="4">
                <rect id="Rectangle-Copy" fill="#8D5F36" x="0" y="40" width="21" height="21"></rect>
                <rect id="Rectangle-Copy-5" fill="#8D5F36" x="21" y="20" width="21" height="21"></rect>
                <rect id="Rectangle-Copy-8" fill="#8D5F36" x="42" y="0" width="21" height="21"></rect>
                <rect id="Rectangle-Copy-2" fill="#8D5F36" x="21" y="40" width="21" height="21"></rect>
                <rect id="Rectangle-Copy-6" fill="#8D5F36" x="42" y="20" width="21" height="21"></rect>
                <rect id="Rectangle-Copy-3" fill="#FDEDB6" x="42" y="40" width="21" height="21"></rect>
                <rect id="Rectangle-Copy-7" fill="#FDEDB6" x="63" y="20" width="21" height="21"></rect>
                <rect id="Rectangle-Copy-4" fill="#8D5F36" x="63" y="40" width="21" height="21"></rect>
            </g>
            <path d="M66,82 C66,78.6862915 63.0898509,76 59.5,76 C55.9101491,76 53,78.6862915 53,82" id="Path" stroke="#1B120A" stroke-width="4" fill-rule="nonzero"></path>
            <path d="M114,82 C114,78.6862915 111.089851,76 107.5,76 C103.910149,76 101,78.6862915 101,82" id="Path-Copy" stroke="#1B120A" stroke-width="4" fill-rule="nonzero"></path>
        </g>
    </g>
</svg>